<svg width="50" height="50" viewBox="0 0 50 50" fill="none" xmlns="http://www.w3.org/2000/svg">
<g clip-path="url(#clip0_18_174)">
<g clip-path="url(#clip1_18_174)">
<path d="M28.0292 49.8194C40.4083 48.3208 50 37.7806 50 25C50 11.1931 38.8069 0 25 0C11.1931 0 0 11.1931 0 25C0 36.725 8.07083 46.5639 18.9611 49.2653L19.4444 47.2222H27.0833L28.0292 49.8194Z" fill="#0866FF"/>
<path d="M18.9595 49.2653V32.6403H13.7998V25H18.9595V21.7084C18.9595 13.1986 22.8095 9.25836 31.1595 9.25836C32.7401 9.25836 35.4693 9.56808 36.5901 9.87781V16.7986C35.9998 16.7389 34.9692 16.7084 33.6998 16.7084C29.5998 16.7084 28.0192 18.2584 28.0192 22.2986V25H36.1901L34.7901 32.6389H28.0304V49.8195C24.9986 50.1846 21.9257 49.9968 18.9609 49.2653H18.9595Z" fill="white"/>
</g>
</g>
<defs>
<clipPath id="clip0_18_174">
<rect width="50" height="50" fill="white"/>
</clipPath>
<clipPath id="clip1_18_174">
<rect width="50" height="50" fill="white"/>
</clipPath>
</defs>
</svg>
