<svg width="50" height="50" viewBox="0 0 50 50" fill="none" xmlns="http://www.w3.org/2000/svg">
<circle cx="25" cy="25" r="24.5" fill="white" stroke="#D9D9D9"/>
<g clip-path="url(#clip0_18_181)">
<path fill-rule="evenodd" clip-rule="evenodd" d="M36.8906 25.7841C36.8906 24.8977 36.8111 24.0455 36.6634 23.2273H24.8906V28.0625H31.6179C31.3281 29.625 30.4474 30.9489 29.1236 31.8353V34.9716H33.1634C35.527 32.7955 36.8906 29.5909 36.8906 25.7841Z" fill="#4285F4"/>
<path fill-rule="evenodd" clip-rule="evenodd" d="M24.8907 38C28.2657 38 31.0952 36.8807 33.1634 34.9716L29.1236 31.8352C28.0043 32.5852 26.5725 33.0284 24.8907 33.0284C21.635 33.0284 18.8793 30.8295 17.8964 27.875H13.7202V31.1136C15.777 35.1989 20.0043 38 24.8907 38Z" fill="#34A853"/>
<path fill-rule="evenodd" clip-rule="evenodd" d="M17.8963 27.875C17.6463 27.125 17.5043 26.3239 17.5043 25.5C17.5043 24.6761 17.6463 23.875 17.8963 23.125V19.8864H13.7202C12.8736 21.5739 12.3906 23.4829 12.3906 25.5C12.3906 27.517 12.8736 29.4261 13.7202 31.1136L17.8963 27.875Z" fill="#FBBC05"/>
<path fill-rule="evenodd" clip-rule="evenodd" d="M24.8907 17.9716C26.7259 17.9716 28.3736 18.6023 29.6691 19.8409L33.2543 16.2557C31.0895 14.2386 28.26 13 24.8907 13C20.0043 13 15.777 15.8011 13.7202 19.8864L17.8964 23.125C18.8793 20.1705 21.635 17.9716 24.8907 17.9716Z" fill="#EA4335"/>
</g>
<defs>
<clipPath id="clip0_18_181">
<rect width="25" height="25" fill="white" transform="translate(12 13)"/>
</clipPath>
</defs>
</svg>
