<svg width="50" height="50" viewBox="0 0 50 50" fill="none" xmlns="http://www.w3.org/2000/svg">
<circle cx="25" cy="25" r="25" fill="#FEE500"/>
<path d="M25.0721 12.0657C17.2941 12.0657 11.0215 17.0838 11.0215 23.1757C11.0215 27.13 13.6309 30.5924 17.545 32.5695L16.2202 37.5174C16.1952 37.5916 16.1914 37.6712 16.2091 37.7474C16.2268 37.8236 16.2654 37.8934 16.3206 37.9489C16.401 38.0198 16.5044 38.059 16.6116 38.0593C16.7005 38.0522 16.7848 38.017 16.8525 37.959L22.553 34.1151C23.3945 34.2313 24.2427 34.2916 25.0922 34.2957C32.8602 34.2957 39.1428 29.2777 39.1428 23.1757C39.1428 17.0737 32.8401 12.0657 25.0721 12.0657Z" fill="#392020"/>
<path d="M15.9388 21.4193H14.4033C14.213 21.4249 14.025 21.3761 13.8613 21.2788C13.7887 21.2333 13.7262 21.1732 13.6778 21.1024C13.6295 21.0316 13.5963 20.9516 13.5803 20.8673C13.5754 20.8139 13.5754 20.7602 13.5803 20.7068C13.5755 20.6069 13.5949 20.5072 13.6369 20.4163C13.6788 20.3255 13.742 20.2461 13.8212 20.1849C13.9962 20.0582 14.2073 19.9913 14.4234 19.9942H19.05C19.2419 19.9874 19.4311 20.04 19.592 20.1447C19.6664 20.1882 19.7301 20.2478 19.7787 20.3189C19.8273 20.3901 19.8595 20.4711 19.873 20.5563C19.8779 20.6063 19.8779 20.6568 19.873 20.7068C19.8777 20.8082 19.8584 20.9092 19.8165 21.0017C19.7746 21.0942 19.7114 21.1753 19.6321 21.2386C19.4614 21.3652 19.2523 21.4291 19.04 21.4193H17.5546V26.6984C17.5607 26.8108 17.5433 26.9233 17.5035 27.0287C17.4638 27.1341 17.4026 27.2301 17.3238 27.3106C17.2483 27.3875 17.1574 27.4478 17.0572 27.4876C16.9569 27.5274 16.8495 27.5457 16.7417 27.5414C16.5532 27.5468 16.3687 27.4865 16.2198 27.3708C16.0781 27.2578 15.9818 27.0974 15.9489 26.9191C15.9389 26.8459 15.9389 26.7716 15.9489 26.6984L15.9388 21.4193Z" fill="#FEE500"/>
<path d="M20.3159 20.3856C20.3601 20.2205 20.4637 20.0775 20.607 19.9841C20.7596 19.8976 20.9335 19.8559 21.1088 19.8637H21.4902C21.6761 19.8571 21.8603 19.9022 22.0221 19.9942C22.1935 20.1095 22.3153 20.285 22.3633 20.486L24.3705 26.1564C24.4226 26.3044 24.4661 26.4552 24.501 26.6081C24.5044 26.6716 24.5044 26.7352 24.501 26.7987C24.5044 26.8966 24.4864 26.9939 24.4483 27.0841C24.4101 27.1742 24.3528 27.255 24.2802 27.3206C24.2099 27.3927 24.1255 27.4495 24.0322 27.4875C23.939 27.5255 23.8389 27.5438 23.7383 27.5414C23.5835 27.5568 23.428 27.5197 23.2969 27.4359C23.1658 27.3522 23.0667 27.2267 23.0157 27.0798L22.5941 25.8454H19.9546L19.5331 27.0798C19.4833 27.2296 19.383 27.3575 19.2494 27.4417C19.1158 27.5259 18.9571 27.5611 18.8005 27.5414C18.6308 27.5459 18.4645 27.4928 18.3288 27.3908C18.1965 27.2857 18.1073 27.1358 18.0779 26.9694C18.0725 26.9127 18.0725 26.8555 18.0779 26.7987C18.0606 26.6991 18.0606 26.5974 18.0779 26.4977C18.0779 26.3873 18.1481 26.2668 18.1883 26.1564L20.3159 20.3856ZM21.3195 21.7004L20.3661 24.7113H22.2629L21.3195 21.7004Z" fill="#FEE500"/>
<path d="M24.7309 20.7069C24.7207 20.4817 24.8 20.2616 24.9516 20.0947C25.0287 20.017 25.1212 19.9563 25.2232 19.9165C25.3252 19.8767 25.4344 19.8587 25.5438 19.8638C25.7318 19.8616 25.9153 19.9216 26.0657 20.0345C26.2051 20.1522 26.2976 20.316 26.3266 20.4961C26.3365 20.566 26.3365 20.637 26.3266 20.7069V25.986H29.0865C29.2779 25.9835 29.4659 26.0356 29.6285 26.1364C29.7016 26.1815 29.7643 26.2414 29.8128 26.3123C29.8612 26.3832 29.8941 26.4635 29.9095 26.5479C29.9095 26.5479 29.9095 26.6483 29.9095 26.6985C29.9143 26.7984 29.8949 26.898 29.8529 26.9888C29.811 27.0797 29.7478 27.1592 29.6686 27.2204C29.4937 27.3471 29.2825 27.4139 29.0665 27.411H25.6742C25.4582 27.4249 25.2434 27.3687 25.062 27.2505C24.8998 27.1292 24.7917 26.949 24.761 26.7487C24.7536 26.6384 24.7536 26.5277 24.761 26.4175L24.7309 20.7069Z" fill="#FEE500"/>
<path d="M30.0901 20.707C30.0841 20.4824 30.1629 20.2639 30.3109 20.0948C30.4613 19.9581 30.6543 19.8774 30.8572 19.8665C31.0601 19.8555 31.2607 19.9149 31.4249 20.0346C31.5674 20.1512 31.6635 20.3149 31.6959 20.4962C31.7009 20.5663 31.7009 20.6369 31.6959 20.707V23.1658L34.235 20.2352C34.3329 20.1352 34.4368 20.0415 34.5462 19.9543C34.6492 19.8929 34.7674 19.8615 34.8874 19.8639C35.0628 19.8629 35.2343 19.9155 35.3792 20.0145C35.4474 20.0604 35.5057 20.1197 35.5505 20.1887C35.5953 20.2576 35.6258 20.3349 35.6401 20.4159C35.6442 20.4358 35.6442 20.4563 35.6401 20.4762C35.6352 20.4994 35.6352 20.5232 35.6401 20.5464C35.6398 20.652 35.6121 20.7558 35.5598 20.8475C35.5066 20.9447 35.4426 21.0355 35.3691 21.1184L33.7031 22.9451L35.7104 26.0562V26.1566C35.8146 26.3004 35.8958 26.4596 35.9512 26.6284V26.6785C35.9628 26.7948 35.9461 26.9122 35.9024 27.0205C35.8587 27.1289 35.7893 27.225 35.7003 27.3007C35.5329 27.4273 35.3281 27.4944 35.1182 27.4915C34.9788 27.4972 34.8403 27.466 34.7168 27.4011C34.5831 27.3114 34.473 27.191 34.3956 27.0498L32.5289 24.039L31.6357 24.9724V26.6483C31.6417 26.8729 31.5629 27.0915 31.4149 27.2605C31.3356 27.3381 31.2412 27.3986 31.1377 27.4383C31.0341 27.478 30.9235 27.4961 30.8127 27.4915C30.6275 27.4953 30.4467 27.435 30.3009 27.3208C30.1591 27.2078 30.0629 27.0475 30.0299 26.8692C30.02 26.796 30.02 26.7216 30.0299 26.6483L30.0901 20.707Z" fill="#FEE500"/>
</svg>
