<svg width="154" height="154" viewBox="0 0 154 154" fill="none" xmlns="http://www.w3.org/2000/svg">
<path fill-rule="evenodd" clip-rule="evenodd" d="M104.528 12.8333H70.5842C58.0389 12.8913 47.3738 22.0095 45.3667 34.3933C33.0788 36.0549 23.8866 46.5055 23.8067 58.905V111.329C23.7896 119.248 26.9277 126.847 32.527 132.446C38.1264 138.046 45.7256 141.184 53.6442 141.167H85.7275C97.8443 141.171 108.224 132.495 110.368 120.569C122.094 117.956 130.439 107.558 130.452 95.5442V38.5C130.452 31.6481 127.713 25.0804 122.844 20.2596C117.975 15.4387 111.38 12.7648 104.528 12.8333ZM65.3225 44.1467H99.9084C102.566 44.1467 104.721 46.3013 104.721 48.9591C104.721 51.617 102.566 53.7716 99.9084 53.7716H65.3225C62.6647 53.7716 60.51 51.617 60.51 48.9591C60.51 46.3013 62.6647 44.1467 65.3225 44.1467ZM53.3875 132.632H85.4709C92.7389 132.641 99.1759 127.943 101.384 121.018H70.5842C56.4089 121.018 44.9175 109.527 44.9175 95.3517V42.8633C37.4381 44.5888 32.1258 51.2292 32.0842 58.905V111.329C32.1543 123.066 41.6512 132.562 53.3875 132.632ZM60.51 90.2825C60.51 87.6246 62.6647 85.47 65.3225 85.47H89.8342C92.4921 85.47 94.6467 87.6246 94.6467 90.2825C94.6467 92.9403 92.4921 95.095 89.8342 95.095H65.3225C62.6647 95.095 60.51 92.9403 60.51 90.2825ZM65.3225 74.4333H109.79C112.448 74.4333 114.603 72.2787 114.603 69.6208C114.603 66.9629 112.448 64.8083 109.79 64.8083H65.3225C62.6647 64.8083 60.51 66.9629 60.51 69.6208C60.51 72.2787 62.6647 74.4333 65.3225 74.4333Z" fill="#D9D9D9"/>
</svg>
