<svg width="51" height="51" viewBox="0 0 51 51" fill="none" xmlns="http://www.w3.org/2000/svg">
<path d="M51 25.5C51 39.5833 39.5833 51 25.5 51C11.4167 51 0 39.5833 0 25.5C0 11.4167 11.4167 0 25.5 0C39.5833 0 51 11.4167 51 25.5Z" fill="#D9D9D9"/>
<path d="M25.4999 14.2914C22.6862 14.2914 20.4052 16.5724 20.4052 19.3862C20.4052 22.2 22.6862 24.481 25.4999 24.481C28.3137 24.481 30.5947 22.2 30.5947 19.3862C30.5947 16.5724 28.3137 14.2914 25.4999 14.2914Z" fill="#666565"/>
<path d="M20.0655 27.1982C17.2517 27.1982 14.9707 29.4792 14.9707 32.293V33.9074C14.9707 34.9307 15.7124 35.8033 16.7223 35.9682C22.5356 36.9173 28.4643 36.9173 34.2775 35.9682C35.2875 35.8033 36.0291 34.9307 36.0291 33.9074V32.293C36.0291 29.4792 33.7481 27.1982 30.9344 27.1982H30.4713C30.2206 27.1982 29.9715 27.2378 29.7333 27.3156L28.5574 27.6996C26.5707 28.3483 24.4292 28.3483 22.4425 27.6996L21.2666 27.3156C21.0283 27.2378 20.7793 27.1982 20.5286 27.1982H20.0655Z" fill="#666565"/>
</svg>
