<svg width="20" height="20" viewBox="0 0 20 20" fill="none" xmlns="http://www.w3.org/2000/svg">
<path fill-rule="evenodd" clip-rule="evenodd" d="M12.6138 2.89137C12.4966 2.77416 12.3376 2.70831 12.1718 2.70831C12.0061 2.70831 11.8471 2.77416 11.7299 2.89137L4.06957 10.5517C3.99105 10.6302 3.93487 10.7282 3.9068 10.8357L3.07347 14.026C3.0174 14.2407 3.07935 14.469 3.23624 14.6259C3.39314 14.7828 3.62146 14.8448 3.83614 14.7887L7.02649 13.9554C7.13393 13.9273 7.23196 13.8711 7.31048 13.7926L14.9708 6.13228C15.2149 5.8882 15.2149 5.49247 14.9708 5.24839L12.6138 2.89137ZM5.07337 11.3157L12.1718 4.2172L13.645 5.69034L6.54651 12.7888L4.55254 13.3096L5.07337 11.3157Z" fill="#666565"/>
<path d="M3.33301 16.0416C2.98783 16.0416 2.70801 16.3215 2.70801 16.6666C2.70801 17.0118 2.98783 17.2916 3.33301 17.2916H15.833C16.1782 17.2916 16.458 17.0118 16.458 16.6666C16.458 16.3215 16.1782 16.0416 15.833 16.0416H3.33301Z" fill="#666565"/>
</svg>
